<svg width="50" height="50" viewBox="0 0 50 50" fill="none" xmlns="http://www.w3.org/2000/svg">
<path d="M32.396 27.0834C33.9585 27.0834 35.3335 26.2292 36.0418 24.9375L43.5002 11.4167C43.6757 11.1009 43.7658 10.7448 43.7615 10.3835C43.7571 10.0222 43.6586 9.66829 43.4755 9.35682C43.2924 9.04534 43.0311 8.78706 42.7175 8.60756C42.404 8.42805 42.049 8.33353 41.6877 8.33335H10.8543L8.896 4.16669H2.0835V8.33335H6.25016L13.7502 24.1459L10.9377 29.2292C9.41683 32.0209 11.4168 35.4167 14.5835 35.4167H39.5835V31.25H14.5835L16.8752 27.0834H32.396ZM12.8335 12.5H38.146L32.396 22.9167H17.771L12.8335 12.5ZM14.5835 37.5C12.2918 37.5 10.4377 39.375 10.4377 41.6667C10.4377 43.9584 12.2918 45.8334 14.5835 45.8334C16.8752 45.8334 18.7502 43.9584 18.7502 41.6667C18.7502 39.375 16.8752 37.5 14.5835 37.5ZM35.4168 37.5C33.1252 37.5 31.271 39.375 31.271 41.6667C31.271 43.9584 33.1252 45.8334 35.4168 45.8334C37.7085 45.8334 39.5835 43.9584 39.5835 41.6667C39.5835 39.375 37.7085 37.5 35.4168 37.5Z" fill="#AEF9FD"/>
</svg>
