<svg width="210" height="53" viewBox="0 0 210 53" fill="none" xmlns="http://www.w3.org/2000/svg">
<g clip-path="url(#clip0_43_91)">
<g clip-path="url(#clip1_43_91)">
<g clip-path="url(#clip2_43_91)">
<g clip-path="url(#clip3_43_91)">
<g clip-path="url(#clip4_43_91)">
<g clip-path="url(#clip5_43_91)">
<g clip-path="url(#clip6_43_91)">
<g clip-path="url(#clip7_43_91)">
<path d="M25.9345 24.8054C25.9345 25.6914 25.8171 26.4878 25.5823 27.1948C25.3523 27.9017 25.0465 28.5261 24.6649 29.0681C24.2784 29.6054 23.8283 30.0649 23.3146 30.4466C22.8009 30.8283 22.2701 31.1394 21.7221 31.3797C21.1742 31.6201 20.6164 31.7992 20.0489 31.917C19.4814 32.0301 18.9457 32.0867 18.4418 32.0867H0.476751V27.5977H18.4418C19.342 27.5977 20.0391 27.3456 20.5333 26.8413C21.0274 26.3323 21.2745 25.6537 21.2745 24.8054C21.2745 24.3906 21.2084 24.0113 21.0763 23.6672C20.9442 23.3185 20.7559 23.0192 20.5112 22.7694C20.2666 22.5149 19.9682 22.3194 19.6159 22.1827C19.2637 22.0413 18.8723 21.9706 18.4418 21.9706H7.72733C6.97879 21.9706 6.16665 21.841 5.2909 21.5818C4.42005 21.3226 3.6128 20.9055 2.86915 20.3306C2.12061 19.7556 1.49927 19.0039 1.00513 18.0755C0.506106 17.1423 0.256592 16.0018 0.256592 14.654C0.256592 13.3108 0.506106 12.175 1.00513 11.2466C1.49927 10.3182 2.12061 9.56414 2.86915 8.98447C3.6128 8.40479 4.42005 7.98535 5.2909 7.72615C6.16665 7.46694 6.97879 7.33734 7.72733 7.33734H23.5861V11.8263H7.72733C6.84669 11.8263 6.15686 12.0855 5.65783 12.6039C5.1637 13.1223 4.91663 13.8057 4.91663 14.654C4.91663 15.5164 5.1637 16.1974 5.65783 16.697C6.15686 17.2012 6.84669 17.4534 7.72733 17.4534H18.4418H18.4784C18.9824 17.4628 19.5156 17.5288 20.0783 17.6513C20.636 17.7691 21.1937 17.9553 21.7515 18.2098C22.3043 18.4643 22.8327 18.7848 23.3366 19.1712C23.8357 19.5529 24.2809 20.0148 24.6723 20.5568C25.0588 21.0987 25.367 21.7208 25.5969 22.423C25.822 23.1252 25.9345 23.9194 25.9345 24.8054ZM52.7499 7.33734V11.8263H42.4905V32.0867H37.8305V11.8263H27.5417V7.33734H52.7499ZM81.8476 12.7948V15.6578C81.8476 16.6805 81.7155 17.5948 81.4514 18.4007C81.1921 19.2065 80.8374 19.9158 80.3873 20.5285C79.942 21.1459 79.4259 21.6737 78.8388 22.112C78.2517 22.5503 77.6402 22.9085 77.0041 23.1865C76.3632 23.4693 75.7174 23.6743 75.0667 23.8015C74.416 23.9288 73.8045 23.9924 73.2321 23.9924L82.9558 32.0867H75.7566L66.0475 23.9924H62.6938V19.5035H73.2321C73.8143 19.4563 74.3475 19.3385 74.8319 19.15C75.3162 18.9615 75.7346 18.707 76.0868 18.3865C76.4391 18.0613 76.7106 17.6725 76.9014 17.2201C77.0922 16.763 77.1876 16.2422 77.1876 15.6578V12.823C77.1876 12.5733 77.1558 12.3824 77.0922 12.2504C77.0237 12.1185 76.9405 12.0195 76.8427 11.9535C76.7399 11.8923 76.6323 11.8546 76.5198 11.8404C76.4073 11.831 76.3021 11.8263 76.2042 11.8263H60.8298V32.0867H56.1771V9.59949C56.1771 9.28844 56.2358 8.99389 56.3532 8.71584C56.4706 8.44249 56.6345 8.20214 56.8449 7.99478C57.0553 7.78741 57.3023 7.62482 57.5861 7.507C57.8747 7.39389 58.1854 7.33734 58.5181 7.33734H76.2042C77.2414 7.33734 78.1196 7.51878 78.8388 7.88167C79.5531 8.24455 80.1353 8.69934 80.5854 9.24603C81.0306 9.79271 81.3535 10.3818 81.5541 11.0133C81.7498 11.6448 81.8476 12.2387 81.8476 12.7948ZM91.2191 7.33734V32.0867H86.5591V7.33734H91.2191ZM117.176 7.33734H122.372L110.204 31.203C110.013 31.5753 109.73 31.8722 109.353 32.0937C108.976 32.3199 108.563 32.433 108.113 32.433C107.667 32.433 107.256 32.3199 106.88 32.0937C106.508 31.8722 106.219 31.5753 106.014 31.203L93.8683 7.33734H99.0788L108.113 25.1659L117.176 7.33734ZM146.127 17.4534V21.9706H131.42V17.4534H146.127ZM148.226 27.5977V32.0867H131.42C130.774 32.0867 130.07 31.9783 129.307 31.7615C128.539 31.54 127.829 31.1794 127.178 30.6799C126.528 30.1803 125.985 29.53 125.549 28.7288C125.114 27.9276 124.896 26.9473 124.896 25.788V9.59949C124.896 9.28844 124.955 8.99389 125.072 8.71584C125.195 8.44249 125.361 8.20214 125.571 7.99478C125.777 7.78741 126.024 7.62482 126.312 7.507C126.596 7.39389 126.907 7.33734 127.244 7.33734H148.226V11.8263H129.556V25.788C129.556 26.3724 129.718 26.8201 130.041 27.1311C130.363 27.4422 130.836 27.5977 131.457 27.5977H148.226Z" fill="#9EEEFE"/>
</g>
</g>
<g clip-path="url(#clip8_43_91)">
<g clip-path="url(#clip9_43_91)">
<path d="M64.0772 38.3575C64.2558 38.3575 64.4241 38.3774 64.5821 38.4171C64.7401 38.4568 64.8638 38.5131 64.9531 38.5859L64.7367 39.2311C64.6542 39.1781 64.5649 39.1398 64.4687 39.1159C64.3726 39.0934 64.2661 39.0822 64.1493 39.0822C63.8539 39.0822 63.6237 39.1497 63.4589 39.2847C63.294 39.421 63.2116 39.6381 63.2116 39.9359V40.6903V40.9484V45.6535H62.3872V39.8564C62.3872 39.6381 62.4215 39.4362 62.4902 39.2509C62.5589 39.0656 62.664 38.9068 62.8055 38.7745C62.9457 38.6421 63.1222 38.5395 63.3352 38.4667C63.5482 38.3939 63.7955 38.3575 64.0772 38.3575ZM61.3567 40.6903H64.9325V41.3752H61.3567V40.6903ZM68.1682 40.591C68.6559 40.591 69.0867 40.6936 69.4604 40.8987C69.8355 41.1039 70.1295 41.3997 70.3425 41.7862C70.5555 42.1739 70.6619 42.6359 70.6619 43.1719C70.6619 43.7079 70.5555 44.1692 70.3425 44.5556C70.1295 44.9434 69.8355 45.2399 69.4604 45.4451C69.0867 45.6502 68.6559 45.7528 68.1682 45.7528C67.6873 45.7528 67.2579 45.6502 66.8801 45.4451C66.5022 45.2399 66.2068 44.9434 65.9939 44.5556C65.7809 44.1692 65.6744 43.7079 65.6744 43.1719C65.6744 42.6359 65.7809 42.1739 65.9939 41.7862C66.2068 41.3997 66.5022 41.1039 66.8801 40.8987C67.2579 40.6936 67.6873 40.591 68.1682 40.591ZM68.1682 41.2759C67.8178 41.2759 67.519 41.352 67.2717 41.5042C67.0243 41.6564 66.8334 41.8728 66.6987 42.1534C66.5654 42.4353 66.4988 42.7748 66.4988 43.1719C66.4988 43.5623 66.5654 43.8998 66.6987 44.1844C66.8334 44.469 67.0243 44.6873 67.2717 44.8395C67.519 44.9917 67.8178 45.0678 68.1682 45.0678C68.5185 45.0678 68.8174 44.9917 69.0647 44.8395C69.312 44.6873 69.5023 44.469 69.6356 44.1844C69.7702 43.8998 69.8376 43.5623 69.8376 43.1719C69.8376 42.7748 69.7702 42.4353 69.6356 42.1534C69.5023 41.8728 69.312 41.6564 69.0647 41.5042C68.8174 41.352 68.5185 41.2759 68.1682 41.2759ZM73.0423 45.6535H72.218V40.6903H72.8878L73.0011 41.5042C73.1454 41.1998 73.3563 40.9715 73.6338 40.8193C73.9128 40.6671 74.2508 40.591 74.6478 40.591C74.7385 40.591 74.8368 40.5976 74.9426 40.6109C75.0497 40.6241 75.1404 40.6506 75.2146 40.6903L75.0724 41.4149C74.9955 41.3884 74.913 41.3686 74.8251 41.3553C74.7358 41.3421 74.608 41.3355 74.4417 41.3355C74.2302 41.3355 74.0158 41.395 73.7987 41.5142C73.583 41.6333 73.403 41.8133 73.2588 42.0542C73.1145 42.2964 73.0423 42.6028 73.0423 42.9734V45.6535ZM80.3258 39.4991L81.1502 39.2807V44.2837C81.1502 44.5285 81.2223 44.7105 81.3666 44.8296C81.5108 44.9487 81.6963 45.0083 81.923 45.0083C82.1223 45.0083 82.294 44.9752 82.4383 44.909C82.5825 44.8428 82.7131 44.7535 82.8299 44.641L83.1184 45.3061C82.9604 45.4451 82.7735 45.5542 82.5578 45.6337C82.3407 45.7131 82.0914 45.7528 81.8097 45.7528C81.5486 45.7528 81.3048 45.7078 81.078 45.6178C80.8513 45.5291 80.6713 45.3868 80.5381 45.1909C80.4034 44.9964 80.3327 44.7403 80.3258 44.4226V39.4991ZM79.2953 40.6903H83.0257V41.3752H79.2953V40.6903ZM85.0763 45.6535H84.2519V38.4072H85.0763V41.4348C85.2549 41.137 85.4919 40.9219 85.7873 40.7895C86.0828 40.6572 86.4056 40.591 86.756 40.591C87.127 40.591 87.4636 40.6585 87.7659 40.7935C88.0681 40.9298 88.31 41.137 88.4913 41.4149C88.6741 41.6928 88.7654 42.0469 88.7654 42.477V45.6535H87.941V42.755C87.941 42.2057 87.8188 41.8232 87.5742 41.6075C87.331 41.3931 87.0308 41.2859 86.6736 41.2859C86.4262 41.2859 86.1789 41.3421 85.9316 41.4546C85.6843 41.5671 85.4796 41.7504 85.3174 42.0045C85.1567 42.26 85.0763 42.5995 85.0763 43.023V45.6535ZM92.7843 45.7528C92.2966 45.7528 91.8617 45.6502 91.4797 45.4451C91.0991 45.2399 90.8024 44.9434 90.5894 44.5556C90.3764 44.1692 90.2699 43.7079 90.2699 43.1719C90.2699 42.6359 90.3764 42.1739 90.5894 41.7862C90.8024 41.3997 91.0943 41.1039 91.4653 40.8987C91.8363 40.6936 92.2588 40.591 92.7328 40.591C93.2137 40.591 93.6238 40.6903 93.9632 40.8888C94.3039 41.0873 94.5636 41.3567 94.7422 41.6968C94.9208 42.0383 95.0102 42.4208 95.0102 42.8443C95.0102 42.9568 95.0067 43.0594 94.9998 43.152C94.993 43.2447 94.9827 43.3274 94.9689 43.4002H90.8058V42.6954H94.6083L94.1858 42.7748C94.1858 42.2984 94.0497 41.9311 93.7777 41.673C93.507 41.4149 93.1519 41.2859 92.7122 41.2859C92.3756 41.2859 92.085 41.36 91.8404 41.5082C91.5972 41.6578 91.4083 41.8728 91.2736 42.1534C91.1404 42.4353 91.0737 42.7748 91.0737 43.1719C91.0737 43.5623 91.1424 43.8998 91.2798 44.1844C91.4172 44.469 91.6109 44.6853 91.861 44.8336C92.1124 44.9831 92.4133 45.0579 92.7637 45.0579C93.1415 45.0579 93.4486 44.9884 93.685 44.8495C93.9227 44.7105 94.1136 44.5219 94.2579 44.2837L94.9071 44.6509C94.7766 44.8759 94.6096 45.0712 94.4063 45.2366C94.2043 45.402 93.9673 45.5291 93.6953 45.6178C93.4246 45.7078 93.1209 45.7528 92.7843 45.7528ZM100.913 45.6535H100.088V40.6903H100.81L100.882 41.802L100.748 41.6928C100.858 41.4281 101.005 41.2144 101.191 41.0516C101.376 40.8901 101.591 40.773 101.836 40.7002C102.079 40.6274 102.331 40.591 102.592 40.591C102.963 40.591 103.3 40.6585 103.602 40.7935C103.905 40.9298 104.147 41.137 104.33 41.4149C104.511 41.6928 104.602 42.0469 104.602 42.477V45.6535H103.777V42.755C103.777 42.2057 103.656 41.8232 103.413 41.6075C103.168 41.3931 102.867 41.2859 102.51 41.2859C102.263 41.2859 102.015 41.3421 101.768 41.4546C101.521 41.5671 101.317 41.7491 101.156 42.0006C100.994 42.252 100.913 42.5895 100.913 43.0131V45.6535ZM108.621 45.7528C108.133 45.7528 107.698 45.6502 107.316 45.4451C106.936 45.2399 106.639 44.9434 106.426 44.5556C106.213 44.1692 106.106 43.7079 106.106 43.1719C106.106 42.6359 106.213 42.1739 106.426 41.7862C106.639 41.3997 106.931 41.1039 107.302 40.8987C107.673 40.6936 108.095 40.591 108.569 40.591C109.05 40.591 109.46 40.6903 109.8 40.8888C110.14 41.0873 110.4 41.3567 110.579 41.6968C110.757 42.0383 110.847 42.4208 110.847 42.8443C110.847 42.9568 110.843 43.0594 110.836 43.152C110.829 43.2447 110.819 43.3274 110.805 43.4002H106.642V42.6954H110.445L110.022 42.7748C110.022 42.2984 109.886 41.9311 109.614 41.673C109.343 41.4149 108.988 41.2859 108.549 41.2859C108.212 41.2859 107.921 41.36 107.677 41.5082C107.434 41.6578 107.245 41.8728 107.11 42.1534C106.977 42.4353 106.91 42.7748 106.91 43.1719C106.91 43.5623 106.979 43.8998 107.116 44.1844C107.254 44.469 107.447 44.6853 107.697 44.8336C107.949 44.9831 108.25 45.0579 108.6 45.0579C108.978 45.0579 109.285 44.9884 109.521 44.8495C109.759 44.7105 109.95 44.5219 110.094 44.2837L110.744 44.6509C110.613 44.8759 110.446 45.0712 110.243 45.2366C110.041 45.402 109.804 45.5291 109.532 45.6178C109.261 45.7078 108.957 45.7528 108.621 45.7528ZM111.877 40.6903H112.908L114.443 42.7649L114.494 42.8344L116.607 45.6535H115.597L114 43.4995L113.907 43.3903L111.877 40.6903ZM115.607 40.6903H116.576L114.536 43.3406H114.484L112.712 45.6535H111.753L114 42.8046H114.062L115.607 40.6903ZM118.295 39.4991L119.119 39.2807V44.2837C119.119 44.5285 119.191 44.7105 119.336 44.8296C119.48 44.9487 119.665 45.0083 119.892 45.0083C120.091 45.0083 120.263 44.9752 120.407 44.909C120.552 44.8428 120.682 44.7535 120.799 44.641L121.088 45.3061C120.93 45.4451 120.743 45.5542 120.527 45.6337C120.31 45.7131 120.06 45.7528 119.779 45.7528C119.518 45.7528 119.274 45.7078 119.047 45.6178C118.82 45.5291 118.64 45.3868 118.507 45.1909C118.373 44.9964 118.302 44.7403 118.295 44.4226V39.4991ZM117.264 40.6903H120.995V41.3752H117.264V40.6903ZM125.694 38.4072H126.518V44.3928C126.518 44.6443 126.566 44.8177 126.662 44.913C126.759 45.0096 126.913 45.0579 127.126 45.0579C127.264 45.0579 127.377 45.048 127.466 45.0281C127.556 45.0083 127.676 44.9719 127.827 44.919L127.693 45.6138C127.583 45.6601 127.463 45.6952 127.332 45.719C127.202 45.7415 127.068 45.7528 126.93 45.7528C126.511 45.7528 126.2 45.6436 125.997 45.4252C125.795 45.2068 125.694 44.8726 125.694 44.4226V38.4072ZM131.042 45.7528C130.554 45.7528 130.119 45.6502 129.737 45.4451C129.357 45.2399 129.06 44.9434 128.847 44.5556C128.634 44.1692 128.528 43.7079 128.528 43.1719C128.528 42.6359 128.634 42.1739 128.847 41.7862C129.06 41.3997 129.352 41.1039 129.723 40.8987C130.094 40.6936 130.516 40.591 130.99 40.591C131.471 40.591 131.881 40.6903 132.221 40.8888C132.562 41.0873 132.821 41.3567 133 41.6968C133.179 42.0383 133.268 42.4208 133.268 42.8443C133.268 42.9568 133.264 43.0594 133.258 43.152C133.251 43.2447 133.24 43.3274 133.227 43.4002H129.063V42.6954H132.866L132.443 42.7748C132.443 42.2984 132.307 41.9311 132.035 41.673C131.765 41.4149 131.41 41.2859 130.97 41.2859C130.633 41.2859 130.343 41.36 130.098 41.5082C129.855 41.6578 129.666 41.8728 129.531 42.1534C129.398 42.4353 129.331 42.7748 129.331 43.1719C129.331 43.5623 129.4 43.8998 129.537 44.1844C129.675 44.469 129.869 44.6853 130.119 44.8336C130.37 44.9831 130.671 45.0579 131.021 45.0579C131.399 45.0579 131.706 44.9884 131.943 44.8495C132.18 44.7105 132.371 44.5219 132.516 44.2837L133.165 44.6509C133.034 44.8759 132.867 45.0712 132.664 45.2366C132.462 45.402 132.225 45.5291 131.953 45.6178C131.682 45.7078 131.379 45.7528 131.042 45.7528ZM136.563 44.8495L138.243 40.6903H139.109L136.965 45.6535H136.141L133.997 40.6903H134.935L136.563 44.8495ZM142.344 45.7528C141.857 45.7528 141.422 45.6502 141.042 45.4451C140.66 45.2399 140.362 44.9434 140.149 44.5556C139.936 44.1692 139.83 43.7079 139.83 43.1719C139.83 42.6359 139.936 42.1739 140.149 41.7862C140.362 41.3997 140.654 41.1039 141.025 40.8987C141.396 40.6936 141.819 40.591 142.293 40.591C142.774 40.591 143.184 40.6903 143.525 40.8888C143.865 41.0873 144.124 41.3567 144.302 41.6968C144.481 42.0383 144.57 42.4208 144.57 42.8443C144.57 42.9568 144.567 43.0594 144.56 43.152C144.553 43.2447 144.543 43.3274 144.529 43.4002H140.366V42.6954H144.168L143.746 42.7748C143.746 42.2984 143.61 41.9311 143.34 41.673C143.068 41.4149 142.712 41.2859 142.272 41.2859C141.936 41.2859 141.646 41.36 141.402 41.5082C141.158 41.6578 140.969 41.8728 140.836 42.1534C140.701 42.4353 140.634 42.7748 140.634 43.1719C140.634 43.5623 140.702 43.8998 140.84 44.1844C140.977 44.469 141.172 44.6853 141.423 44.8336C141.673 44.9831 141.973 45.0579 142.324 45.0579C142.702 45.0579 143.009 44.9884 143.247 44.8495C143.483 44.7105 143.674 44.5219 143.818 44.2837L144.467 44.6509C144.337 44.8759 144.17 45.0712 143.968 45.2366C143.765 45.402 143.528 45.5291 143.257 45.6178C142.985 45.7078 142.681 45.7528 142.344 45.7528ZM146.095 38.4072H146.92V44.3928C146.92 44.6443 146.968 44.8177 147.064 44.913C147.16 45.0096 147.315 45.0579 147.528 45.0579C147.665 45.0579 147.778 45.048 147.868 45.0281C147.957 45.0083 148.077 44.9719 148.228 44.919L148.094 45.6138C147.984 45.6601 147.864 45.6952 147.734 45.719C147.603 45.7415 147.469 45.7528 147.332 45.7528C146.913 45.7528 146.602 45.6436 146.398 45.4252C146.196 45.2068 146.095 44.8726 146.095 44.4226V38.4072Z" fill="#9EEEFE"/>
</g>
</g>
</g>
</g>
<g clip-path="url(#clip10_43_91)">
<path d="M169.446 0H154.382V53.0901H169.446V0Z" fill="#9EEEFE"/>
<path d="M187.817 0H172.753V53.0901H187.817V0Z" fill="#9EEEFE" fill-opacity="0.75"/>
<path d="M206.189 0H191.124V53.0901H206.189V0Z" fill="#9EEEFE" fill-opacity="0.5"/>
</g>
</g>
</g>
</g>
</g>
<defs>
<clipPath id="clip0_43_91">
<rect width="210" height="53" fill="white"/>
</clipPath>
<clipPath id="clip1_43_91">
<rect width="210" height="53" fill="white" transform="translate(-0.127197 0.0450439)"/>
</clipPath>
<clipPath id="clip2_43_91">
<rect width="209.245" height="53.0901" fill="white" transform="translate(0.250244)"/>
</clipPath>
<clipPath id="clip3_43_91">
<rect width="209.245" height="53.0901" fill="white" transform="translate(0.250244)"/>
</clipPath>
<clipPath id="clip4_43_91">
<rect width="147.981" height="38.4154" fill="white" transform="translate(0.250244 7.33734)"/>
</clipPath>
<clipPath id="clip5_43_91">
<rect width="147.981" height="38.4154" fill="white" transform="translate(0.250244 7.33734)"/>
</clipPath>
<clipPath id="clip6_43_91">
<rect width="147.981" height="25.0957" fill="white" transform="translate(0.250244 7.33734)"/>
</clipPath>
<clipPath id="clip7_43_91">
<rect width="147.981" height="25.0957" fill="white" transform="translate(0.250244 7.33734)"/>
</clipPath>
<clipPath id="clip8_43_91">
<rect width="86.8799" height="7.39523" fill="white" transform="translate(61.3518 38.3575)"/>
</clipPath>
<clipPath id="clip9_43_91">
<rect width="86.8799" height="7.39523" fill="white" transform="translate(61.3518 38.3575)"/>
</clipPath>
<clipPath id="clip10_43_91">
<rect width="55.1136" height="53.0901" fill="white" transform="translate(154.382)"/>
</clipPath>
</defs>
</svg>
