<svg width="164" height="164" viewBox="0 0 164 164" fill="none" xmlns="http://www.w3.org/2000/svg">
<path d="M82.2503 0.541504C85.305 0.541504 88.319 0.704421 91.2922 1.0384C92.3555 1.15607 93.3852 1.48202 94.3226 1.99764C95.2599 2.51327 96.0865 3.20846 96.7552 4.04354C97.4238 4.87862 97.9215 5.83722 98.2197 6.86462C98.5179 7.89202 98.6108 8.96809 98.4931 10.0314C98.3754 11.0947 98.0495 12.1244 97.5339 13.0618C97.0182 13.9991 96.323 14.8257 95.488 15.4944C94.6529 16.163 93.6943 16.6607 92.6669 16.9589C91.6395 17.2571 90.5634 17.35 89.5001 17.2323C76.0761 15.7306 62.5172 18.4374 50.6989 24.9784C38.8805 31.5193 29.3868 41.5712 23.5308 53.7435C17.6749 65.9159 15.7461 79.6072 18.0114 92.9236C20.2767 106.24 26.624 118.523 36.1754 128.075C45.7268 137.626 58.0102 143.973 71.3266 146.239C84.643 148.504 98.3343 146.575 110.507 140.719C122.679 134.863 132.731 125.37 139.272 113.551C145.813 101.733 148.52 88.174 147.018 74.75C146.9 73.6867 146.993 72.6107 147.291 71.5833C147.589 70.5559 148.087 69.5973 148.756 68.7622C150.106 67.0757 152.071 65.9947 154.219 65.757C156.366 65.5194 158.52 66.1446 160.207 67.495C161.042 68.1637 161.737 68.9903 162.253 69.9276C162.768 70.8649 163.094 71.8947 163.212 72.958C163.538 75.9312 163.709 78.9451 163.709 81.9998C163.709 126.989 127.24 163.458 82.2503 163.458C37.2609 163.458 0.791992 126.989 0.791992 81.9998C0.791992 37.0104 37.2609 0.541504 82.2503 0.541504ZM81.9897 48.4146C82.5265 50.5058 82.2112 52.7246 81.113 54.5835C80.0148 56.4423 78.2235 57.7892 76.1328 58.328C70.3889 59.8327 65.3887 63.3758 62.0653 68.2962C58.7418 73.2166 57.3221 79.1781 58.0711 85.0683C58.8201 90.9586 61.6866 96.3751 66.1357 100.307C70.5849 104.239 76.3127 106.418 82.2503 106.437C87.6677 106.435 92.9309 104.634 97.2138 101.317C101.497 97.9994 104.557 93.3538 105.914 88.1092C106.454 86.0169 107.803 84.2247 109.665 83.1271C111.526 82.0295 113.747 81.7163 115.84 82.2564C117.932 82.7965 119.724 84.1457 120.822 86.0071C121.919 87.8686 122.233 90.0898 121.692 92.1821C119.194 101.761 113.293 110.103 105.093 115.648C96.8922 121.194 86.9534 123.565 77.1328 122.318C67.3122 121.07 58.2815 116.29 51.7279 108.871C45.1744 101.451 41.5462 91.8993 41.5212 81.9998C41.5226 72.97 44.5235 64.1964 50.0526 57.0573C55.5817 49.9181 63.3256 44.8179 72.068 42.5577C73.1041 42.2907 74.1826 42.2304 75.2419 42.3802C76.3013 42.53 77.3207 42.8871 78.242 43.4309C79.1634 43.9748 79.9686 44.6949 80.6116 45.55C81.2546 46.4051 81.7229 47.3785 81.9897 48.4146ZM135.231 1.57603C136.718 2.19249 137.989 3.23563 138.883 4.57377C139.778 5.9119 140.256 7.48505 140.257 9.09463V24.0015H155.156C156.766 24.0018 158.341 24.4798 159.68 25.3749C161.019 26.27 162.063 27.5421 162.68 29.0303C163.296 30.5185 163.457 32.1561 163.143 33.736C162.829 35.3159 162.053 36.7672 160.915 37.9064L132.103 66.6857C130.576 68.2134 128.504 69.0719 126.344 69.0724H106.688L91.7972 83.9711C90.2687 85.4996 88.1957 86.3583 86.0341 86.3583C83.8725 86.3583 81.7994 85.4996 80.2709 83.9711C78.7424 82.4426 77.8837 80.3696 77.8837 78.2079C77.8837 76.0463 78.7424 73.9733 80.2709 72.4448L95.1696 57.5623V37.8983C95.1701 35.7381 96.0286 33.6665 97.5563 32.1392L126.352 3.33552C127.491 2.19566 128.943 1.41929 130.523 1.10464C132.104 0.789988 133.742 0.9512 135.231 1.56788V1.57603ZM123.965 28.7587L111.461 41.2707V52.7889H122.979L135.491 40.285H132.111C129.951 40.285 127.879 39.4268 126.351 37.8992C124.823 36.3715 123.965 34.2996 123.965 32.1392V28.7587Z" fill="#9EEEFE"/>
</svg>
