<svg width="50" height="50" viewBox="0 0 50 50" fill="none" xmlns="http://www.w3.org/2000/svg">
<path d="M25.0002 12.2916C25.5747 12.2916 26.1436 12.4048 26.6744 12.6247C27.2052 12.8445 27.6875 13.1668 28.0938 13.5731C28.5 13.9793 28.8223 14.4616 29.0421 14.9924C29.262 15.5232 29.3752 16.0921 29.3752 16.6666C29.3752 17.2412 29.262 17.8101 29.0421 18.3409C28.8223 18.8717 28.5 19.354 28.0938 19.7602C27.6875 20.1665 27.2052 20.4888 26.6744 20.7086C26.1436 20.9285 25.5747 21.0416 25.0002 21.0416C23.8398 21.0416 22.727 20.5807 21.9066 19.7602C21.0861 18.9398 20.6252 17.827 20.6252 16.6666C20.6252 15.5063 21.0861 14.3935 21.9066 13.5731C22.727 12.7526 23.8398 12.2916 25.0002 12.2916ZM25.0002 31.0416C31.1877 31.0416 37.7085 34.0833 37.7085 35.4166V37.7083H12.2918V35.4166C12.2918 34.0833 18.8127 31.0416 25.0002 31.0416ZM25.0002 8.33331C20.396 8.33331 16.6668 12.0625 16.6668 16.6666C16.6668 21.2708 20.396 25 25.0002 25C29.6043 25 33.3335 21.2708 33.3335 16.6666C33.3335 12.0625 29.6043 8.33331 25.0002 8.33331ZM25.0002 27.0833C19.4377 27.0833 8.3335 29.875 8.3335 35.4166V41.6666H41.6668V35.4166C41.6668 29.875 30.5627 27.0833 25.0002 27.0833Z" fill="#FF75F8"/>
</svg>
