<svg width="20" height="20" viewBox="0 0 20 20" fill="none" xmlns="http://www.w3.org/2000/svg">
<path d="M5.65198 0H13.8376C16.9559 0 19.4896 2.6 19.4896 5.8V14.2C19.4896 15.7383 18.8941 17.2135 17.8342 18.3012C16.7742 19.3889 15.3366 20 13.8376 20H5.65198C2.53365 20 0 17.4 0 14.2V5.8C0 4.26174 0.595475 2.78649 1.65543 1.69878C2.71538 0.61107 4.15298 0 5.65198 0ZM5.45708 2C4.52667 2 3.63437 2.37928 2.97646 3.05442C2.31856 3.72955 1.94896 4.64522 1.94896 5.6V14.4C1.94896 16.39 3.51787 18 5.45708 18H14.0325C14.9629 18 15.8552 17.6207 16.5131 16.9456C17.171 16.2705 17.5406 15.3548 17.5406 14.4V5.6C17.5406 3.61 15.9717 2 14.0325 2H5.45708ZM14.8608 3.5C15.1839 3.5 15.4937 3.6317 15.7221 3.86612C15.9506 4.10054 16.0789 4.41848 16.0789 4.75C16.0789 5.08152 15.9506 5.39946 15.7221 5.63388C15.4937 5.8683 15.1839 6 14.8608 6C14.5377 6 14.2279 5.8683 13.9995 5.63388C13.771 5.39946 13.6427 5.08152 13.6427 4.75C13.6427 4.41848 13.771 4.10054 13.9995 3.86612C14.2279 3.6317 14.5377 3.5 14.8608 3.5ZM9.74479 5C11.037 5 12.2763 5.52678 13.1901 6.46447C14.1038 7.40215 14.6172 8.67392 14.6172 10C14.6172 11.3261 14.1038 12.5979 13.1901 13.5355C12.2763 14.4732 11.037 15 9.74479 15C8.45255 15 7.21324 14.4732 6.29949 13.5355C5.38574 12.5979 4.8724 11.3261 4.8724 10C4.8724 8.67392 5.38574 7.40215 6.29949 6.46447C7.21324 5.52678 8.45255 5 9.74479 5ZM9.74479 7C8.96945 7 8.22586 7.31607 7.67761 7.87868C7.12936 8.44129 6.82135 9.20435 6.82135 10C6.82135 10.7956 7.12936 11.5587 7.67761 12.1213C8.22586 12.6839 8.96945 13 9.74479 13C10.5201 13 11.2637 12.6839 11.812 12.1213C12.3602 11.5587 12.6682 10.7956 12.6682 10C12.6682 9.20435 12.3602 8.44129 11.812 7.87868C11.2637 7.31607 10.5201 7 9.74479 7Z" fill="white"/>
</svg>
