<svg width="24" height="20" viewBox="0 0 24 20" fill="none" xmlns="http://www.w3.org/2000/svg">
<path d="M23.535 2.25C22.6687 2.64375 21.735 2.9025 20.7675 3.02625C21.7575 2.43 22.5225 1.485 22.8825 0.34875C21.9487 0.91125 20.9137 1.305 19.8225 1.53C18.9337 0.5625 17.685 0 16.2675 0C13.6237 0 11.4637 2.16 11.4637 4.82625C11.4637 5.20875 11.5087 5.58 11.5875 5.92875C7.5825 5.72625 4.01625 3.8025 1.6425 0.88875C1.22625 1.5975 0.99 2.43 0.99 3.3075C0.99 4.98375 1.83375 6.46875 3.13875 7.3125C2.34 7.3125 1.5975 7.0875 0.945 6.75V6.78375C0.945 9.12375 2.61 11.0813 4.815 11.52C4.10707 11.7137 3.36386 11.7407 2.64375 11.5988C2.94931 12.5578 3.54773 13.397 4.35489 13.9983C5.16206 14.5996 6.13738 14.9329 7.14375 14.9513C5.43783 16.3017 3.32325 17.0317 1.1475 17.0212C0.765 17.0212 0.3825 16.9987 0 16.9538C2.1375 18.3263 4.68 19.125 7.4025 19.125C16.2675 19.125 21.1388 11.7675 21.1388 5.38875C21.1388 5.175 21.1387 4.9725 21.1275 4.75875C22.0725 4.08375 22.8825 3.22875 23.535 2.25Z" fill="white"/>
</svg>
