<svg width="191" height="170" viewBox="0 0 191 170" fill="none" xmlns="http://www.w3.org/2000/svg">
<path d="M119 84.9999C119 90.6092 116.503 95.9888 112.059 99.9552C107.614 103.922 101.586 106.15 95.3001 106.15C89.0145 106.15 82.9863 103.922 78.5417 99.9552C74.0971 95.9888 71.6001 90.6092 71.6001 84.9999C71.6001 79.3905 74.0971 74.0109 78.5417 70.0445C82.9863 66.0781 89.0145 63.8499 95.3001 63.8499C101.586 63.8499 107.614 66.0781 112.059 70.0445C116.503 74.0109 119 79.3905 119 84.9999Z" stroke="#9EEEFE" stroke-width="18" stroke-linecap="round" stroke-linejoin="round"/>
<path d="M16.3003 84.9999C28.9403 56.1161 58.4547 35.6499 95.3003 35.6499C132.146 35.6499 161.66 56.1161 174.3 84.9999C161.66 113.884 132.146 134.35 95.3003 134.35C58.4547 134.35 28.9403 113.884 16.3003 84.9999Z" stroke="#9EEEFE" stroke-width="18" stroke-linecap="round" stroke-linejoin="round"/>
</svg>
